<svg xmlns="http://www.w3.org/2000/svg" width="194" height="194" viewBox="0 0 194 194">
    <g fill="none" fill-rule="evenodd">
        <path fill="#485670" fill-rule="nonzero" d="M0 0h194v194H0z"/>
        <path fill="#485670" d="M17 176.654h159.654V17H17z"/>
        <path fill="#EE9560" d="M81.624 160.833c.457.307.989.479 1.54.483 1.359.009 2.955.012 4.756.012 1.853 0 3.926-.004 6.182-.008a9.128 9.128 0 0 1-.368-2.55V130.58c-2.277-.622-4.487-3.443-4.405-3.7 1.081-3.37 2.016-5.075 2.765-6.17.742-1.084 1.301-1.572 1.64-2.478v-4.752c-.2-.45-.468-.86-.781-1.226A28.766 28.766 0 0 1 90.055 111c-.286.264-.512.716-.71 1.317-.657 1.983-1.659 3.535-2.709 4.954-.876 1.184-1.784 2.276-2.555 3.44-.578.874-1.079 1.791-1.427 2.822-1.18 3.492-3.245 7.334-6.984 12.366V155.004c1.734 2.377 3.76 4.357 5.954 5.83M104.328 129.395a3.723 3.723 0 0 0 3.49 2.432H114.85a3.725 3.725 0 1 0 0-7.45h-7.031a3.724 3.724 0 0 0-3.602 2.79c-.078.299-.123.611-.123.934 0 .066.006.13.01.194.02.386.097.755.225 1.1M114.964 134.276H108.048a3.598 3.598 0 0 0-3.598 3.598v.254c0 .207.021.408.054.605a3.596 3.596 0 0 0 2.623 2.87c.295.078.602.123.92.123h10.143c.319 0 .626-.045.92-.123a3.595 3.595 0 0 0 2.623-2.87c.034-.197.055-.398.055-.605v-.254a3.598 3.598 0 0 0-3.598-3.598h-3.226zM119.155 144.472a3.66 3.66 0 0 0-1.27-.23h-9.789c-.447 0-.874.084-1.27.23a3.67 3.67 0 0 0-2.402 3.442v.107a3.672 3.672 0 0 0 3.672 3.672h9.789c.155 0 .307-.013.457-.032a3.668 3.668 0 0 0 3.214-3.64v-.107c0-1.58-1-2.924-2.401-3.442M107.176 160.578H113.88a3.245 3.245 0 0 0 0-6.49H107.176a3.245 3.245 0 0 0 0 6.49"/>
        <path fill="#EC7F35" d="M96.23 68.348a18.116 18.116 0 0 1 6.672-1.27 18.169 18.169 0 0 1 17.135 12.118 18.06 18.06 0 0 1 .99 4.822c.027.408.046.817.046 1.232 0 .05-.004.1-.004.151a18.124 18.124 0 0 1-1.092 6.076c-.165.453-.353.896-.552 1.332a18.16 18.16 0 0 1-3.272 4.867 18.115 18.115 0 0 1-13.251 5.745 18.118 18.118 0 0 1-13.284-5.778 18.137 18.137 0 0 1-3.24-4.834c-.206-.45-.397-.907-.567-1.376a18.129 18.129 0 0 1-1.077-6.032c0-.05-.004-.1-.004-.151 0-.415.019-.824.046-1.232a18.094 18.094 0 0 1 .99-4.822 18.188 18.188 0 0 1 10.465-10.848M80.185 96.249a25.32 25.32 0 0 0 17.095 13.605v48.915a5.652 5.652 0 0 0 1.354 3.653 5.65 5.65 0 0 0 1.294 1.112 5.587 5.587 0 0 0 5.985-.023c.329-.21.635-.45.912-.72a5.43 5.43 0 0 1-1.72-.392 5.487 5.487 0 0 1-1.702-1.109 5.456 5.456 0 0 1-1.702-3.957 5.472 5.472 0 0 1 2.703-4.713 5.892 5.892 0 0 1-2.21-4.599v-.107c0-1.285.417-2.472 1.116-3.441a5.95 5.95 0 0 1 1.535-1.48 5.858 5.858 0 0 1-1.466-1.39 5.782 5.782 0 0 1-1.16-3.475v-.254a5.82 5.82 0 0 1 2.44-4.733 5.966 5.966 0 0 1-2.778-4.665c-.008-.124-.019-.249-.019-.375 0-.253.021-.502.052-.747.37-2.932 2.874-5.208 5.905-5.208h.704v-12.292a25.016 25.016 0 0 0 4.24-1.373 25.22 25.22 0 0 0 5.787-3.44c2.97-2.351 5.4-5.352 7.07-8.792a25.184 25.184 0 0 0 2.515-10.848c.002-.234.006-.467 0-.703-.004-.228-.02-.453-.03-.68a25.055 25.055 0 0 0-.71-4.822 25.103 25.103 0 0 0-3.179-7.408 25.487 25.487 0 0 0-2.62-3.44c-4.546-5.019-11.065-8.222-18.286-8.336a25.197 25.197 0 0 0-.408-.003c-7.439 0-14.125 3.219-18.744 8.339a25.344 25.344 0 0 0-2.603 3.44 25.075 25.075 0 0 0-3.456 8.79 25.309 25.309 0 0 0 .714 12.231 25.072 25.072 0 0 0 1.372 3.44M73.347 155.57v-22.706H45.266v31.527h28.08z"/>
        <path fill="#FCC79D" d="M93.734 128.196v-5.918c-.549.861-1.196 2.122-1.948 4.288.495.556 1.264 1.25 1.948 1.63M116.547 39.11l-.94 5.91h1.99l-.941-5.91zM132.5 39.11l-.94 5.91h1.99l-.94-5.91zM89.654 91.438l26.48.033a14.526 14.526 0 0 0 1.39-6.07H88.28c.022 2.155.512 4.2 1.374 6.037M97.614 39.11l-.94 5.91h1.99l-.94-5.91zM75.454 39.785a3.48 3.48 0 1 0 0 6.96 3.48 3.48 0 0 0 0-6.96"/>
        <path fill="#FDC79A" d="M134.183 49.279l-.398-2.216h-2.441l-.38 2.216h-2.387l2.152-12.023h3.67l2.153 12.023h-2.37zm-6.203-8.004h-2.37v-1.478c0-.332-.074-.537-.225-.617-.15-.081-.346-.121-.588-.121h-.397c-.241 0-.437.04-.588.12-.15.08-.226.286-.226.618v6.991c0 .333.076.53.226.593.15.062.347.095.588.095h.397c.242 0 .438-.033.588-.095.15-.063.226-.26.226-.593v-2.164h-1.102l.335-1.872h3.136v3.847c0 .561-.048 1.02-.145 1.375-.096.354-.265.635-.506.841-.242.206-.567.346-.977.42-.41.075-.928.112-1.555.112h-.397c-.627 0-1.145-.037-1.555-.111-.41-.075-.736-.215-.977-.421-.24-.206-.41-.487-.506-.841-.097-.356-.144-.814-.144-1.375v-6.664c0-.561.047-1.02.144-1.374.097-.355.265-.636.506-.842.241-.206.567-.346.977-.42.41-.075.928-.112 1.555-.112h.397c.627 0 1.146.037 1.555.112.41.074.735.214.977.42.24.206.41.487.506.842.097.355.145.813.145 1.374v1.34zm-9.751 8.004l-.398-2.216h-2.44l-.38 2.216h-2.388l2.153-12.023h3.67l2.152 12.023h-2.37zm-6.483 0h-2.351l.127-6.853h-.055l-1.446 6.853h-1.735l-1.447-6.853h-.072l.108 6.853h-2.333V37.256h2.93l1.663 6.853h.019l1.663-6.853h2.929v12.023zm-12.45 0l-.397-2.216h-2.441l-.38 2.216H93.69l2.152-12.023h3.67l2.152 12.023h-2.369zm-5.787-4.775h-2.893v4.775h-2.369V37.256h5.569v1.924h-3.2v3.228h2.893v2.096zm-9.883 2.104l-1.19 2.061a.386.386 0 0 1-.334.194l-3.16.015a.445.445 0 0 0-.382.222l-1.58 2.723a.387.387 0 0 1-.335.192h-2.38a.384.384 0 0 1-.334-.192L72.35 49.1a.442.442 0 0 0-.383-.222l-3.157-.013a.395.395 0 0 1-.34-.197l-1.187-2.057a.385.385 0 0 1 0-.387l1.567-2.729a.444.444 0 0 0 0-.44l-1.567-2.742a.392.392 0 0 1 0-.393l1.188-2.057a.389.389 0 0 1 .334-.194l3.162-.008a.442.442 0 0 0 .383-.222l1.575-2.727a.387.387 0 0 1 .335-.194h2.38a.39.39 0 0 1 .337.195l1.583 2.727c.08.137.226.22.384.221l3.152.005a.39.39 0 0 1 .337.195l1.19 2.06c.069.12.07.266 0 .386l-1.572 2.744a.445.445 0 0 0 .001.444l1.574 2.725a.39.39 0 0 1 0 .387zm-23.734-16.66v100.594H75.67v1.511c2.359-3.457 3.93-6.448 4.87-9.234.257-.758.58-1.452.94-2.108H66.43v-3.44h17.404l.11-.143c1.314-1.702 2.554-3.31 3.282-5.511.238-.72.528-1.275.845-1.709a29.02 29.02 0 0 1-2.145-1.428H66.469v-3.44h15.54a28.949 28.949 0 0 1-1.508-1.716 28.67 28.67 0 0 1-4.191-7.075h-9.84v-3.44h8.665a28.77 28.77 0 0 1-1.02-7.56c0-.412.014-.822.031-1.23H66.47v-3.44h8.03a28.563 28.563 0 0 1 2.968-8.791H66.47v-3.44h13.152a28.977 28.977 0 0 1 10.323-8.791H66.469v-3.44h70.526v3.44h-21.156a29.018 29.018 0 0 1 10.322 8.79h10.834v3.44h-8.67a28.458 28.458 0 0 1 2.982 8.791h5.688v3.44h-5.341c.008.202.023.403.027.605.06 2.78-.292 5.536-1.014 8.186h6.328v3.44h-7.503a28.636 28.636 0 0 1-4.008 6.849 28.873 28.873 0 0 1-1.692 1.943h13.203v3.44h-17.117a28.875 28.875 0 0 1-7.81 4.054v4.736h24.967v3.44h-24.967v1.435h2.78a5.963 5.963 0 0 1 5.956 5.956 5.927 5.927 0 0 1-1.59 4.038c2.726.486 4.804 2.87 4.804 5.734v.255c0 .204-.01.405-.031.604h19.687V29.947H59.892z"/>
        <path fill="#FCC79D" d="M95.16 97.65a14.532 14.532 0 0 0 7.742 2.225c2.828 0 5.47-.81 7.71-2.206l-15.452-.02zM108.616 71.788h-11.43a14.707 14.707 0 0 0-7.593 7.408h26.617a14.707 14.707 0 0 0-7.594-7.408"/>
    </g>
</svg>
